<svg height="480pt" viewBox="0 0 480 480" width="480pt" xmlns="http://www.w3.org/2000/svg"><path d="m88 216v232c0 17.671875 14.328125 32 32 32h232c17.671875 0 32-14.328125 32-32v-232h-16v184h-264v-184zm280 200v32c0 8.835938-7.164062 16-16 16h-232c-8.835938 0-16-7.164062-16-16v-32zm0 0"/><path d="m232 432h16v16h-16zm0 0"/><path d="m448 32h-64c0-17.671875-14.328125-32-32-32h-232c-17.671875 0-32 14.328125-32 32h-56c-17.671875 0-32 14.328125-32 32v104c0 17.671875 14.328125 32 32 32h221.390625l-13.078125 45.808594c-.945312 3.324218.355469 6.878906 3.21875 8.8125 2.867188 1.933594 6.648438 1.808594 9.378906-.308594l69.832032-54.3125h125.257812c17.671875 0 32-14.328125 32-32v-104c0-17.671875-14.328125-32-32-32zm-328-16h232c8.835938 0 16 7.164062 16 16h-264c0-8.835938 7.164062-16 16-16zm344 152c0 8.835938-7.164062 16-16 16h-128c-1.78125 0-3.507812.59375-4.910156 1.6875l-52.691406 40.960938 9.265624-32.457032c.6875-2.40625.203126-5-1.300781-7-1.503906-2-3.859375-3.183594-6.363281-3.191406h-232c-8.835938 0-16-7.164062-16-16v-104c0-8.835938 7.164062-16 16-16h416c8.835938 0 16 7.164062 16 16zm0 0"/><path d="m89.207031 98.398438-12.359375-1.902344-5.601562-11.929688c-1.316406-2.804687-4.136719-4.59375-7.238282-4.59375-3.101562 0-5.921874 1.789063-7.238281 4.59375l-5.601562 11.929688-12.375 1.902344c-2.960938.457031-5.421875 2.527343-6.375 5.367187-.949219 2.839844-.234375 5.976563 1.855469 8.121094l9.183593 9.410156-2.183593 13.382813c-.507813 3.03125.761718 6.082031 3.269531 7.855468 2.507812 1.773438 5.808593 1.953125 8.496093.464844l10.960938-6.0625 10.960938 6.0625c2.679687 1.484375 5.972656 1.304688 8.476562-.460938 2.507812-1.761718 3.785156-4.804687 3.289062-7.828124l-2.183593-13.382813 9.183593-9.40625c2.089844-2.148437 2.804688-5.285156 1.855469-8.125-.953125-2.839844-3.414062-4.910156-6.375-5.363281zm-18.933593 14.617187c-1.773438 1.816406-2.578126 4.367187-2.167969 6.871094l.183593 1.105469-.417968-.222657c-2.410156-1.335937-5.332032-1.335937-7.742188 0l-.417968.222657.183593-1.105469c.410157-2.503907-.394531-5.054688-2.167969-6.871094l-1.125-1.160156 1.191407-.183594c2.636719-.402344 4.898437-2.097656 6.03125-4.511719l.175781-.335937.175781.367187c1.132813 2.417969 3.394531 4.109375 6.03125 4.511719l1.191407.183594zm0 0"/><path d="m169.207031 98.398438-12.359375-1.902344-5.601562-11.929688c-1.316406-2.804687-4.136719-4.59375-7.238282-4.59375-3.101562 0-5.921874 1.789063-7.238281 4.59375l-5.601562 11.929688-12.359375 1.902344c-2.960938.457031-5.421875 2.527343-6.375 5.367187-.949219 2.839844-.234375 5.976563 1.855468 8.121094l9.183594 9.410156-2.183594 13.382813c-.496093 3.023437.78125 6.0625 3.289063 7.828124 2.503906 1.765626 5.796875 1.941407 8.476563.460938l10.945312-6.03125 10.960938 6.0625c2.679687 1.484375 5.972656 1.304688 8.476562-.460938 2.507812-1.761718 3.785156-4.804687 3.289062-7.828124l-2.183593-13.382813 9.183593-9.40625c2.089844-2.148437 2.804688-5.285156 1.855469-8.125-.953125-2.839844-3.414062-4.910156-6.375-5.363281zm-18.933593 14.617187c-1.773438 1.816406-2.578126 4.367187-2.167969 6.871094l.183593 1.105469-.417968-.222657c-2.410156-1.335937-5.332032-1.335937-7.742188 0l-.417968.222657.183593-1.105469c.410157-2.503907-.394531-5.054688-2.167969-6.871094l-1.125-1.160156 1.191407-.183594c2.636719-.402344 4.898437-2.097656 6.03125-4.511719l.175781-.335937.175781.367187c1.132813 2.417969 3.394531 4.109375 6.03125 4.511719l1.191407.183594zm0 0"/><path d="m249.207031 98.398438-12.359375-1.902344-5.601562-11.929688c-1.316406-2.804687-4.136719-4.59375-7.238282-4.59375-3.101562 0-5.921874 1.789063-7.238281 4.59375l-5.601562 11.929688-12.359375 1.902344c-2.960938.457031-5.421875 2.527343-6.375 5.367187-.949219 2.839844-.234375 5.976563 1.855468 8.121094l9.183594 9.410156-2.183594 13.382813c-.496093 3.023437.78125 6.0625 3.289063 7.828124 2.503906 1.765626 5.796875 1.941407 8.476563.460938l10.945312-6.03125 10.960938 6.0625c2.679687 1.484375 5.972656 1.304688 8.476562-.460938 2.507812-1.761718 3.785156-4.804687 3.289062-7.828124l-2.183593-13.382813 9.183593-9.40625c2.089844-2.148437 2.804688-5.285156 1.855469-8.125-.953125-2.839844-3.414062-4.910156-6.375-5.363281zm-18.933593 14.617187c-1.773438 1.816406-2.578126 4.367187-2.167969 6.871094l.183593 1.105469-.417968-.222657c-2.410156-1.335937-5.332032-1.335937-7.742188 0l-.417968.222657.183593-1.105469c.410157-2.503907-.394531-5.054688-2.167969-6.871094l-1.125-1.160156 1.191407-.183594c2.636719-.402344 4.898437-2.097656 6.03125-4.511719l.175781-.335937.175781.367187c1.132813 2.417969 3.394531 4.109375 6.03125 4.511719l1.191407.183594zm0 0"/><path d="m361.207031 94.648438-23.414062-3.578126-10.554688-22.46875c-1.316406-2.808593-4.136719-4.597656-7.238281-4.597656s-5.921875 1.789063-7.238281 4.597656l-10.554688 22.46875-23.414062 3.578126c-2.964844.453124-5.429688 2.523437-6.382813 5.367187-.949218 2.84375-.234375 5.980469 1.863282 8.128906l17.183593 17.597657-4.074219 24.960937c-.492187 3.023437.785157 6.066406 3.289063 7.828125 2.507813 1.765625 5.800781 1.945312 8.480469.460938l20.847656-11.511719 20.847656 11.519531c2.679688 1.484375 5.972656 1.304688 8.480469-.460938 2.503906-1.761718 3.78125-4.804687 3.289063-7.828124l-4.074219-24.957032 17.183593-17.601562c2.097657-2.148438 2.8125-5.285156 1.863282-8.128906-.953125-2.84375-3.417969-4.914063-6.382813-5.367188zm-26.933593 22.824218c-1.773438 1.816406-2.578126 4.367188-2.167969 6.871094l2.070312 12.6875-10.304687-5.695312c-2.410156-1.332032-5.332032-1.332032-7.742188 0l-10.304687 5.695312 2.070312-12.6875c.410157-2.503906-.394531-5.054688-2.167969-6.871094l-9.125-9.351562 12.246094-1.882813c2.636719-.402343 4.898438-2.089843 6.03125-4.503906l5.121094-10.902344 5.121094 10.902344c1.132812 2.414063 3.394531 4.101563 6.03125 4.503906l12.246094 1.882813zm0 0"/><path d="m441.207031 98.398438-12.359375-1.902344-5.601562-11.929688c-1.316406-2.804687-4.136719-4.59375-7.238282-4.59375-3.101562 0-5.921874 1.789063-7.238281 4.59375l-5.601562 11.929688-12.359375 1.902344c-2.960938.457031-5.421875 2.527343-6.375 5.367187-.949219 2.839844-.234375 5.976563 1.855468 8.121094l9.183594 9.410156-2.183594 13.382813c-.496093 3.023437.78125 6.0625 3.289063 7.828124 2.503906 1.765626 5.796875 1.941407 8.476563.460938l10.945312-6.03125 10.960938 6.0625c2.679687 1.484375 5.972656 1.304688 8.476562-.460938 2.507812-1.761718 3.785156-4.804687 3.289062-7.828124l-2.183593-13.382813 9.183593-9.40625c2.089844-2.148437 2.804688-5.285156 1.855469-8.125-.953125-2.839844-3.414062-4.910156-6.375-5.363281zm-18.933593 14.617187c-1.773438 1.816406-2.578126 4.367187-2.167969 6.871094l.183593 1.105469-.417968-.222657c-2.410156-1.335937-5.332032-1.335937-7.742188 0l-.417968.222657.183593-1.105469c.410157-2.503907-.394531-5.054688-2.167969-6.871094l-1.125-1.160156 1.191407-.183594c2.636719-.402344 4.898437-2.097656 6.03125-4.511719l.175781-.335937.175781.367187c1.132813 2.417969 3.394531 4.109375 6.03125 4.511719l1.191407.183594zm0 0"/><path d="m120 352v32h16v-32c0-13.253906 10.746094-24 24-24h48c13.253906 0 24 10.746094 24 24v32h16v-32c-.035156-19.285156-13.828125-35.800781-32.800781-39.273438 5.660156-7 8.765625-15.722656 8.800781-24.726562v-16c0-22.089844-17.910156-40-40-40s-40 17.910156-40 40v16c.035156 9.003906 3.140625 17.726562 8.800781 24.726562-18.972656 3.472657-32.765625 19.988282-32.800781 39.273438zm40-80c0-13.253906 10.746094-24 24-24s24 10.746094 24 24v16c0 13.253906-10.746094 24-24 24s-24-10.746094-24-24zm0 0"/><path d="m264 304h56v16h-56zm0 0"/><path d="m336 304h16v16h-16zm0 0"/><path d="m264 336h32v16h-32zm0 0"/><path d="m312 336h40v16h-40zm0 0"/><path d="m264 368h88v16h-88zm0 0"/><path d="m264 272h88v16h-88zm0 0"/><path d="m296 240h56v16h-56zm0 0"/></svg>